<svg width="59" height="42" viewBox="0 0 59 42" fill="none" xmlns="http://www.w3.org/2000/svg">
<path d="M23.6 30L38.9105 21L23.6 12V30ZM57.702 6.51C58.0855 7.92 58.351 9.81 58.528 12.21C58.7345 14.61 58.823 16.68 58.823 18.48L59 21C59 27.57 58.528 32.4 57.702 35.49C56.9645 38.19 55.2535 39.93 52.5985 40.68C51.212 41.07 48.675 41.34 44.781 41.52C40.946 41.73 37.4355 41.82 34.1905 41.82L29.5 42C17.1395 42 9.44 41.52 6.4015 40.68C3.7465 39.93 2.0355 38.19 1.298 35.49C0.9145 34.08 0.649 32.19 0.472 29.79C0.2655 27.39 0.177 25.32 0.177 23.52L0 21C0 14.43 0.472 9.6 1.298 6.51C2.0355 3.81 3.7465 2.07 6.4015 1.32C7.788 0.93 10.325 0.66 14.219 0.48C18.054 0.27 21.5645 0.18 24.8095 0.18L29.5 0C41.8605 0 49.56 0.48 52.5985 1.32C55.2535 2.07 56.9645 3.81 57.702 6.51Z" fill="white" fill-opacity="0.7"/>
</svg>
