<svg width="24" height="25" viewBox="0 0 24 25" fill="none" xmlns="http://www.w3.org/2000/svg">
<g id="basil:cross-solid">
<circle id="Ellipse 1535" cx="12" cy="12.5" r="10.5" fill="#FF0000"/>
<path id="Vector" d="M16.066 9.49502C16.1377 9.42587 16.1948 9.34314 16.2342 9.25165C16.2735 9.16017 16.2943 9.06176 16.2952 8.96218C16.2961 8.8626 16.2772 8.76383 16.2395 8.67164C16.2018 8.57945 16.1462 8.49568 16.0758 8.42523C16.0054 8.35478 15.9217 8.29905 15.8295 8.2613C15.7374 8.22354 15.6386 8.20452 15.5391 8.20534C15.4395 8.20616 15.341 8.2268 15.2495 8.26606C15.158 8.30532 15.0752 8.36242 15.006 8.43402L12 11.439L8.995 8.43402C8.92634 8.36033 8.84354 8.30123 8.75154 8.26024C8.65954 8.21925 8.56022 8.19721 8.45952 8.19543C8.35882 8.19365 8.25879 8.21218 8.1654 8.2499C8.07201 8.28762 7.98718 8.34376 7.91596 8.41498C7.84474 8.4862 7.7886 8.57103 7.75087 8.66442C7.71315 8.75781 7.69463 8.85784 7.69641 8.95854C7.69818 9.05925 7.72022 9.15856 7.76122 9.25056C7.80221 9.34256 7.86131 9.42536 7.935 9.49402L10.938 12.5L7.933 15.505C7.80052 15.6472 7.72839 15.8352 7.73182 16.0295C7.73525 16.2238 7.81396 16.4092 7.95138 16.5466C8.08879 16.6841 8.27417 16.7628 8.46847 16.7662C8.66278 16.7696 8.85082 16.6975 8.993 16.565L12 13.56L15.005 16.566C15.1472 16.6985 15.3352 16.7706 15.5295 16.7672C15.7238 16.7638 15.9092 16.6851 16.0466 16.5476C16.184 16.4102 16.2627 16.2248 16.2662 16.0305C16.2696 15.8362 16.1975 15.6482 16.065 15.506L13.062 12.5L16.066 9.49502Z" fill="white"/>
</g>
</svg>
