<svg width="35" height="37" viewBox="0 0 35 37" fill="none" xmlns="http://www.w3.org/2000/svg">
<path d="M13.9886 3.61344C13.3441 6.36568 13.2565 9.219 13.731 12.0056C14.2055 14.7922 15.2324 17.4557 16.7514 19.8396C18.2703 22.2235 20.2507 24.2795 22.576 25.8868C24.9012 27.4941 27.5244 28.6201 30.2912 29.1987C28.8371 30.7048 27.0949 31.903 25.1682 32.722C23.2416 33.5409 21.1699 33.964 19.0764 33.9659C18.8823 33.9659 18.6855 33.973 18.4886 33.9659C14.8441 33.8375 11.3598 32.4365 8.64089 30.0062C5.92202 27.5759 4.14041 24.2699 3.6056 20.6626C3.07079 17.0553 3.81657 13.3747 5.71337 10.26C7.61017 7.14543 10.5381 4.79371 13.9886 3.61344ZM16.0656 0.21875C15.9831 0.219014 15.9007 0.226543 15.8195 0.24125C11.3429 1.03792 7.31923 3.46253 4.52325 7.04824C1.72726 10.634 0.356627 15.1273 0.675238 19.6631C0.993848 24.1989 2.97918 28.4564 6.24898 31.6161C9.51879 34.7757 13.8419 36.614 18.3859 36.777C18.6166 36.7855 18.8472 36.777 19.075 36.777C22.0267 36.7792 24.9354 36.0704 27.5553 34.7107C30.1751 33.351 32.4289 31.3803 34.1261 28.9653C34.2636 28.7572 34.3439 28.5165 34.3588 28.2675C34.3738 28.0185 34.3229 27.7699 34.2113 27.5469C34.0996 27.3238 33.9312 27.134 33.723 26.9967C33.5148 26.8593 33.274 26.7793 33.025 26.7645C30.2157 26.518 27.5007 25.6287 25.0898 24.1656C22.6789 22.7024 20.6368 20.7044 19.1213 18.3262C17.6057 15.9479 16.6573 13.253 16.3494 10.4497C16.0414 7.64647 16.3822 4.80994 17.3453 2.15938C17.4272 1.94722 17.4573 1.71855 17.433 1.49242C17.4086 1.2663 17.3306 1.04926 17.2054 0.859393C17.0802 0.669526 16.9114 0.512326 16.7132 0.400889C16.5149 0.289453 16.2929 0.227005 16.0656 0.21875Z" fill="#C32B7D"/>
</svg>
