<svg width="41" height="41" viewBox="0 0 41 41" fill="none" xmlns="http://www.w3.org/2000/svg">
<path fill-rule="evenodd" clip-rule="evenodd" d="M21.7355 3.55367C21.4788 3.48484 21.2084 3.48484 20.9517 3.55367C20.8523 3.57992 20.6855 3.6493 20.3442 3.9343C19.988 4.23055 19.5567 4.65992 18.8967 5.3218C18.2348 5.9818 17.8073 6.41305 17.5092 6.7693C17.2261 7.11055 17.1548 7.27555 17.1286 7.3768C17.06 7.63355 17.06 7.9038 17.1286 8.16055C17.1548 8.25992 17.2261 8.4268 17.5092 8.76617C17.8073 9.12242 18.2348 9.55367 18.8967 10.2155L31.2848 22.6037C31.9467 23.2655 32.378 23.693 32.7342 23.9912C33.0736 24.2743 33.2405 24.3455 33.3398 24.3718C33.5966 24.4405 33.8669 24.4405 34.1236 24.3718C34.223 24.3455 34.3898 24.2743 34.7311 23.9912C35.0873 23.693 35.5186 23.2655 36.1786 22.6037C36.8405 21.9418 37.2698 21.5105 37.5661 21.1562C37.8511 20.8149 37.9223 20.648 37.9486 20.5487C38.0174 20.292 38.0174 20.0216 37.9486 19.7649C37.9205 19.6655 37.8511 19.4987 37.5661 19.1574C37.2698 18.8012 36.8405 18.3699 36.1786 17.7099L34.8023 16.3337C34.3564 15.8872 34.1059 15.2819 34.1059 14.6509C34.1059 14.0198 34.3564 13.4145 34.8023 12.968C35.4792 12.2912 35.8861 11.8805 36.1392 11.5487C36.2128 11.4591 36.2751 11.3609 36.3248 11.2562C36.338 11.2224 36.338 11.213 36.338 11.2093C36.338 11.2074 36.338 11.1962 36.3248 11.1624C36.2751 11.0577 36.2128 10.9595 36.1392 10.8699C35.8861 10.538 35.4792 10.1274 34.8023 9.45055L32.0498 6.69805C31.373 6.02117 30.9623 5.6143 30.6305 5.36117C30.5409 5.28757 30.4427 5.22523 30.338 5.17555C30.3042 5.16242 30.293 5.16242 30.2911 5.16242C30.2911 5.16242 30.2817 5.16242 30.2442 5.17555C30.1395 5.22523 30.0413 5.28757 29.9517 5.36117C29.5609 5.68244 29.1896 6.0268 28.8398 6.39242L31.973 9.52742C32.1111 9.65616 32.2219 9.81141 32.2988 9.98391C32.3757 10.1564 32.417 10.3426 32.4203 10.5314C32.4237 10.7203 32.3889 10.9078 32.3182 11.0829C32.2475 11.258 32.1422 11.4171 32.0087 11.5506C31.8751 11.6842 31.7161 11.7894 31.541 11.8602C31.3659 11.9309 31.1783 11.9656 30.9895 11.9623C30.8007 11.959 30.6145 11.9176 30.442 11.8408C30.2695 11.7639 30.1142 11.6531 29.9855 11.5149L23.7905 5.3218C23.3268 4.84006 22.8439 4.37718 22.343 3.9343C22.0017 3.6493 21.8348 3.57805 21.7355 3.55367ZM26.8505 4.40305L25.7367 3.2893C25.227 2.76216 24.6952 2.25672 24.143 1.7743C23.6517 1.36367 23.1192 1.01117 22.463 0.836797C21.7296 0.640338 20.9575 0.640338 20.2242 0.836797C19.568 1.01117 19.0355 1.36367 18.5442 1.7743C18.0792 2.16242 17.558 2.68367 16.9505 3.2893L16.8642 3.37555C16.2586 3.98117 15.7392 4.50242 15.3492 4.9693C14.9405 5.45867 14.588 5.99117 14.4117 6.64742C14.215 7.38135 14.215 8.15412 14.4117 8.88805C14.588 9.5443 14.9405 10.0768 15.3492 10.568C15.7373 11.033 16.2586 11.5543 16.8642 12.1618L17.978 13.2737L13.0842 18.1674L11.9705 17.0537C11.4613 16.5266 10.9302 16.0212 10.3786 15.5387C9.88734 15.1299 9.35484 14.7774 8.69859 14.6012C7.96468 14.4044 7.19188 14.4044 6.45797 14.6012C5.80172 14.7774 5.26922 15.1299 4.77797 15.5387C4.31297 15.9268 3.79172 16.448 3.18422 17.0537L3.09984 17.1399C2.49422 17.7474 1.97297 18.2687 1.58484 18.7337C1.17422 19.2249 0.821719 19.7574 0.647344 20.4137C0.450885 21.147 0.450885 21.9191 0.647344 22.6524C0.821719 23.3087 1.17422 23.8412 1.58484 24.3324C1.97297 24.7993 2.49234 25.3187 3.09984 25.9262L3.14297 25.9693L4.21172 27.038C3.7581 27.4767 3.33227 27.9432 2.93672 28.4349C2.51672 28.9862 2.16047 29.6462 2.16047 30.4805C2.16047 31.3149 2.51672 31.9749 2.93484 32.5243C3.31734 33.0268 3.86297 33.5705 4.45922 34.1687L7.33172 37.0412C7.92984 37.6374 8.47359 38.183 8.97422 38.5655C9.52547 38.9837 10.1855 39.3399 11.0198 39.3399C11.8542 39.3399 12.5142 38.9837 13.0636 38.5655C13.5554 38.1688 14.0219 37.7417 14.4605 37.2868L15.5742 38.4006C16.1817 39.0062 16.7011 39.5274 17.168 39.9155C17.6592 40.3262 18.1917 40.6787 18.848 40.853C19.5811 41.0499 20.3536 41.0499 21.0867 40.853C21.743 40.6787 22.2755 40.3262 22.7667 39.9155C23.2317 39.5274 23.753 39.0062 24.3605 38.4006L24.4467 38.3143C25.0523 37.7087 25.5717 37.1874 25.9617 36.7205C26.3705 36.2312 26.723 35.6987 26.8992 35.0424C27.0961 34.3085 27.0961 33.5357 26.8992 32.8018C26.723 32.1455 26.3705 31.6131 25.9617 31.1218C25.4784 30.5697 24.9724 30.038 24.4448 29.528L23.333 28.4162L28.2267 23.5224L29.3405 24.6362C29.9461 25.2418 30.4655 25.7612 30.9323 26.1512C31.4236 26.5599 31.9561 26.9124 32.6123 27.0887C33.3455 27.2855 34.118 27.2855 34.853 27.0887C35.5092 26.9124 36.0417 26.5599 36.533 26.1512C36.998 25.763 37.5192 25.2418 38.1267 24.6362L38.2111 24.5499C38.8167 23.9424 39.338 23.4212 39.7261 22.9562C40.1367 22.4649 40.4892 21.9324 40.6636 21.2762C40.86 20.5428 40.86 19.7708 40.6636 19.0374C40.4892 18.3812 40.1367 17.8487 39.7261 17.3574C39.2436 16.8052 38.7382 16.2735 38.2111 15.7637L37.0973 14.6499C37.5522 14.212 37.9793 13.7461 38.3761 13.2549C38.7942 12.7037 39.1505 12.0437 39.1505 11.2093C39.1505 10.3749 38.7942 9.71492 38.3761 9.16555C37.9936 8.66305 37.448 8.1193 36.8517 7.52117L33.9792 4.64867C33.3811 4.05242 32.8373 3.5068 32.3367 3.1243C31.7855 2.70617 31.1255 2.34992 30.2911 2.34992C29.4567 2.34992 28.7967 2.70617 28.2473 3.1243C27.8161 3.4543 27.3511 3.90242 26.8505 4.40305ZM26.2373 21.533L19.9673 15.263L15.0736 20.1568L21.3436 26.4268L26.2373 21.533ZM6.20297 29.0274C5.83729 29.3778 5.49293 29.7497 5.17172 30.1412C5.09812 30.2307 5.03578 30.3289 4.98609 30.4337C4.97297 30.4674 4.97297 30.4768 4.97297 30.4805C4.97297 30.4824 4.97297 30.4937 4.98609 30.5274C5.03685 30.6315 5.09911 30.7297 5.17172 30.8199C5.42484 31.1518 5.83172 31.5624 6.50859 32.2393L9.26109 34.9918C9.93797 35.6687 10.3486 36.0755 10.6805 36.3287C10.7701 36.4022 10.8683 36.4646 10.973 36.5143C11.0105 36.5293 11.018 36.5274 11.0198 36.5274C11.0217 36.5274 11.033 36.5274 11.0667 36.5143C11.1714 36.4646 11.2696 36.4022 11.3592 36.3287C11.6911 36.0755 12.1017 35.6687 12.7786 34.9918C13.2251 34.5458 13.8303 34.2953 14.4614 34.2953C15.0925 34.2953 15.6977 34.5458 16.1442 34.9918L17.5205 36.368C18.1823 37.0299 18.6117 37.4593 18.968 37.7555C19.3092 38.0405 19.4761 38.1118 19.5755 38.138C19.8322 38.2069 20.1025 38.2069 20.3592 38.138C20.4586 38.1099 20.6255 38.0405 20.9667 37.7555C21.323 37.4593 21.7542 37.0299 22.4142 36.368C23.0761 35.708 23.5036 35.2768 23.8017 34.9205C24.0848 34.5793 24.1561 34.4143 24.1823 34.313C24.251 34.0563 24.251 33.786 24.1823 33.5293C24.1561 33.4299 24.0848 33.263 23.8017 32.9237C23.5036 32.5674 23.0761 32.1362 22.4142 31.4743L10.0261 19.0862C9.5617 18.6045 9.07818 18.1416 8.57672 17.6987C8.23734 17.4155 8.07047 17.3443 7.97109 17.318C7.71434 17.2495 7.44409 17.2495 7.18734 17.318C7.08797 17.3443 6.92109 17.4155 6.57984 17.6987C6.22359 17.9968 5.79234 18.4243 5.13234 19.0862C4.65065 19.5499 4.18778 20.0328 3.74484 20.5337C3.45984 20.8749 3.38859 21.0418 3.36422 21.1412C3.29539 21.3979 3.29539 21.6682 3.36422 21.9249C3.39047 22.0243 3.45984 22.1912 3.74484 22.5324C4.04109 22.8887 4.47047 23.3199 5.13234 23.9799L11.3255 30.1749C11.5739 30.4415 11.7091 30.7941 11.7027 31.1584C11.6962 31.5227 11.5487 31.8703 11.291 32.128C11.0334 32.3856 10.6858 32.5332 10.3214 32.5396C9.95713 32.5461 9.60455 32.4108 9.33797 32.1624L6.20297 29.0274Z" fill="#C32B7D"/>
</svg>
