<svg width="41" height="47" viewBox="0 0 41 47" fill="none" xmlns="http://www.w3.org/2000/svg">
<path d="M26.5219 4.29609C26.8605 3.46992 27.6658 2.9375 28.5536 2.9375H38.8036C40.0208 2.9375 41 3.91973 41 5.14062V15.4219C41 16.3123 40.4692 17.1201 39.6455 17.4598C38.8219 17.7994 37.8792 17.6158 37.2478 16.9824L34.1911 13.9164L29.3772 18.7449C31.1618 21.352 32.2143 24.5006 32.2143 27.9062C32.2143 36.8289 25.0027 44.0625 16.1071 44.0625C7.21161 44.0625 0 36.8289 0 27.9062C0 18.9836 7.21161 11.75 16.1071 11.75C19.4933 11.75 22.6415 12.7965 25.2406 14.5957L30.0545 9.76719L26.9978 6.70117C26.3663 6.06777 26.1833 5.12227 26.5219 4.29609ZM16.1071 38.1875C17.4532 38.1875 18.7861 37.9216 20.0296 37.4049C21.2732 36.8882 22.4032 36.1309 23.355 35.1762C24.3068 34.2215 25.0618 33.0881 25.5769 31.8407C26.092 30.5933 26.3571 29.2564 26.3571 27.9062C26.3571 26.5561 26.092 25.2192 25.5769 23.9718C25.0618 22.7244 24.3068 21.591 23.355 20.6363C22.4032 19.6816 21.2732 18.9243 20.0296 18.4076C18.7861 17.8909 17.4532 17.625 16.1071 17.625C14.7611 17.625 13.4282 17.8909 12.1846 18.4076C10.941 18.9243 9.8111 19.6816 8.8593 20.6363C7.9075 21.591 7.15249 22.7244 6.63738 23.9718C6.12227 25.2192 5.85714 26.5561 5.85714 27.9062C5.85714 29.2564 6.12227 30.5933 6.63738 31.8407C7.15249 33.0881 7.9075 34.2215 8.8593 35.1762C9.8111 36.1309 10.941 36.8882 12.1846 37.4049C13.4282 37.9216 14.7611 38.1875 16.1071 38.1875Z" fill="#C32B7D"/>
</svg>
