<svg width="20" height="20" viewBox="0 0 20 20" fill="none" xmlns="http://www.w3.org/2000/svg">
<path d="M15.3912 14.025L15.7162 16.6583C15.7995 17.35 15.0579 17.8333 14.4662 17.475L10.9745 15.4C10.5912 15.4 10.2162 15.375 9.84955 15.325C10.4662 14.6 10.8329 13.6833 10.8329 12.6916C10.8329 10.325 8.78288 8.40835 6.24955 8.40835C5.28288 8.40835 4.39122 8.68333 3.64955 9.16666C3.62455 8.95833 3.61621 8.74999 3.61621 8.53332C3.61621 4.74166 6.90788 1.66666 10.9745 1.66666C15.0412 1.66666 18.3329 4.74166 18.3329 8.53332C18.3329 10.7833 17.1745 12.775 15.3912 14.025Z" stroke="white" stroke-width="1.5" stroke-linecap="round" stroke-linejoin="round"/>
<path d="M10.8337 12.6917C10.8337 13.6833 10.467 14.6 9.85033 15.325C9.02533 16.325 7.71699 16.9667 6.25033 16.9667L4.07533 18.2583C3.70866 18.4833 3.24199 18.175 3.29199 17.75L3.50032 16.1083C2.38366 15.3333 1.66699 14.0917 1.66699 12.6917C1.66699 11.225 2.45033 9.93333 3.65033 9.16667C4.392 8.68333 5.28366 8.40836 6.25033 8.40836C8.78366 8.40836 10.8337 10.325 10.8337 12.6917Z" stroke="white" stroke-width="1.5" stroke-linecap="round" stroke-linejoin="round"/>
</svg>
