<svg width="20" height="20" viewBox="0 0 20 20" fill="none" xmlns="http://www.w3.org/2000/svg">
<path d="M14.167 8.33332H15.8337C17.5003 8.33332 18.3337 7.49999 18.3337 5.83332V4.16666C18.3337 2.49999 17.5003 1.66666 15.8337 1.66666H14.167C12.5003 1.66666 11.667 2.49999 11.667 4.16666V5.83332C11.667 7.49999 12.5003 8.33332 14.167 8.33332Z" stroke="white" stroke-width="1.5" stroke-miterlimit="10" stroke-linecap="round" stroke-linejoin="round"/>
<path d="M4.16699 18.3333H5.83366C7.50033 18.3333 8.33366 17.5 8.33366 15.8333V14.1667C8.33366 12.5 7.50033 11.6667 5.83366 11.6667H4.16699C2.50033 11.6667 1.66699 12.5 1.66699 14.1667V15.8333C1.66699 17.5 2.50033 18.3333 4.16699 18.3333Z" stroke="white" stroke-width="1.5" stroke-miterlimit="10" stroke-linecap="round" stroke-linejoin="round"/>
<path d="M5.00033 8.33332C6.84127 8.33332 8.33366 6.84094 8.33366 4.99999C8.33366 3.15904 6.84127 1.66666 5.00033 1.66666C3.15938 1.66666 1.66699 3.15904 1.66699 4.99999C1.66699 6.84094 3.15938 8.33332 5.00033 8.33332Z" stroke="white" stroke-width="1.5" stroke-miterlimit="10" stroke-linecap="round" stroke-linejoin="round"/>
<path d="M15.0003 18.3333C16.8413 18.3333 18.3337 16.8409 18.3337 15C18.3337 13.159 16.8413 11.6667 15.0003 11.6667C13.1594 11.6667 11.667 13.159 11.667 15C11.667 16.8409 13.1594 18.3333 15.0003 18.3333Z" stroke="white" stroke-width="1.5" stroke-miterlimit="10" stroke-linecap="round" stroke-linejoin="round"/>
</svg>
