<svg width="20" height="20" viewBox="0 0 20 20" fill="none" xmlns="http://www.w3.org/2000/svg">
<path d="M8.37428 2.10775L3.35762 5.38275C1.74928 6.43275 1.74928 8.78275 3.35762 9.83275L8.37428 13.1078C9.27428 13.6994 10.7576 13.6994 11.6576 13.1078L16.6493 9.83275C18.2493 8.78275 18.2493 6.44109 16.6493 5.39109L11.6576 2.11609C10.7576 1.51609 9.27428 1.51609 8.37428 2.10775Z" stroke="white" stroke-width="1.5" stroke-linecap="round" stroke-linejoin="round"/>
<path d="M4.69095 10.9001L4.68262 14.8084C4.68262 15.8667 5.49928 17.0001 6.49928 17.3334L9.15762 18.2167C9.61595 18.3667 10.3743 18.3667 10.841 18.2167L13.4993 17.3334C14.4993 17.0001 15.316 15.8667 15.316 14.8084V10.9417" stroke="white" stroke-width="1.5" stroke-linecap="round" stroke-linejoin="round"/>
<path d="M17.834 12.5V7.5" stroke="white" stroke-width="1.5" stroke-linecap="round" stroke-linejoin="round"/>
</svg>
