<svg width="20" height="20" viewBox="0 0 20 20" fill="none" xmlns="http://www.w3.org/2000/svg">
<path d="M4.55004 15.409V12.9757C4.55004 12.1673 5.18337 11.4423 6.08337 11.4423C6.89171 11.4423 7.61671 12.0757 7.61671 12.9757V15.3173C7.61671 16.9423 6.26671 18.2923 4.64171 18.2923C3.01671 18.2923 1.66671 16.934 1.66671 15.3173V10.184C1.57504 5.50065 5.27504 1.70898 9.95837 1.70898C14.6417 1.70898 18.3334 5.50065 18.3334 10.0923V15.2257C18.3334 16.8507 16.9834 18.2007 15.3584 18.2007C13.7334 18.2007 12.3834 16.8507 12.3834 15.2257V12.884C12.3834 12.0757 13.0167 11.3507 13.9167 11.3507C14.725 11.3507 15.45 11.984 15.45 12.884V15.409" stroke="white" stroke-width="1.5" stroke-linecap="round" stroke-linejoin="round"/>
</svg>
