<svg width="20" height="21" viewBox="0 0 20 21" fill="none" xmlns="http://www.w3.org/2000/svg">
<path d="M15.0004 6.46666C14.9504 6.45833 14.8921 6.45833 14.8421 6.46666C13.6921 6.42499 12.7754 5.48332 12.7754 4.31666C12.7754 3.12499 13.7337 2.16666 14.9254 2.16666C16.1171 2.16666 17.0754 3.13332 17.0754 4.31666C17.0671 5.48332 16.1504 6.42499 15.0004 6.46666Z" stroke="#A4ACB9" stroke-width="1.5" stroke-linecap="round" stroke-linejoin="round"/>
<path d="M14.1422 12.5333C15.2839 12.725 16.5422 12.525 17.4255 11.9333C18.6005 11.15 18.6005 9.86667 17.4255 9.08334C16.5339 8.49167 15.2589 8.29166 14.1172 8.49166" stroke="#A4ACB9" stroke-width="1.5" stroke-linecap="round" stroke-linejoin="round"/>
<path d="M4.97344 6.46666C5.02344 6.45833 5.08177 6.45833 5.13177 6.46666C6.28177 6.42499 7.19844 5.48332 7.19844 4.31666C7.19844 3.12499 6.24011 2.16666 5.04844 2.16666C3.85677 2.16666 2.89844 3.13332 2.89844 4.31666C2.90677 5.48332 3.82344 6.42499 4.97344 6.46666Z" stroke="#A4ACB9" stroke-width="1.5" stroke-linecap="round" stroke-linejoin="round"/>
<path d="M5.83255 12.5333C4.69088 12.725 3.43255 12.525 2.54922 11.9333C1.37422 11.15 1.37422 9.86667 2.54922 9.08334C3.44089 8.49167 4.71588 8.29166 5.85755 8.49166" stroke="#A4ACB9" stroke-width="1.5" stroke-linecap="round" stroke-linejoin="round"/>
<path d="M10.0004 12.6917C9.95039 12.6833 9.89206 12.6833 9.84206 12.6917C8.69206 12.65 7.77539 11.7083 7.77539 10.5417C7.77539 9.35 8.73372 8.39166 9.92539 8.39166C11.1171 8.39166 12.0754 9.35833 12.0754 10.5417C12.0671 11.7083 11.1504 12.6583 10.0004 12.6917Z" stroke="#A4ACB9" stroke-width="1.5" stroke-linecap="round" stroke-linejoin="round"/>
<path d="M7.57461 15.3167C6.39961 16.1 6.39961 17.3833 7.57461 18.1667C8.90794 19.0583 11.0913 19.0583 12.4246 18.1667C13.5996 17.3833 13.5996 16.1 12.4246 15.3167C11.0996 14.4333 8.90794 14.4333 7.57461 15.3167Z" stroke="#A4ACB9" stroke-width="1.5" stroke-linecap="round" stroke-linejoin="round"/>
</svg>
