<svg width="20" height="21" viewBox="0 0 20 21" fill="none" xmlns="http://www.w3.org/2000/svg">
<path d="M1.66699 2.16706H3.117C4.017 2.16706 4.72533 2.94206 4.65033 3.83373L3.95866 12.1337C3.84199 13.4921 4.91699 14.6587 6.28365 14.6587H15.1587C16.3587 14.6587 17.4087 13.6754 17.5003 12.4837L17.9503 6.23373C18.0503 4.8504 17.0003 3.72539 15.6087 3.72539H4.85033" stroke="#9B4EFF" stroke-width="1.5" stroke-miterlimit="10" stroke-linecap="round" stroke-linejoin="round"/>
<path d="M13.5417 18.8337C14.117 18.8337 14.5833 18.3674 14.5833 17.7921C14.5833 17.2168 14.117 16.7504 13.5417 16.7504C12.9664 16.7504 12.5 17.2168 12.5 17.7921C12.5 18.3674 12.9664 18.8337 13.5417 18.8337Z" stroke="#9B4EFF" stroke-width="1.5" stroke-miterlimit="10" stroke-linecap="round" stroke-linejoin="round"/>
<path d="M6.87467 18.8337C7.44997 18.8337 7.91634 18.3674 7.91634 17.7921C7.91634 17.2168 7.44997 16.7504 6.87467 16.7504C6.29938 16.7504 5.83301 17.2168 5.83301 17.7921C5.83301 18.3674 6.29938 18.8337 6.87467 18.8337Z" stroke="#9B4EFF" stroke-width="1.5" stroke-miterlimit="10" stroke-linecap="round" stroke-linejoin="round"/>
<path d="M7.5 7.16706H17.5" stroke="#9B4EFF" stroke-width="1.5" stroke-miterlimit="10" stroke-linecap="round" stroke-linejoin="round"/>
</svg>
