<svg width="18" height="19" viewBox="0 0 18 19" fill="none" xmlns="http://www.w3.org/2000/svg">
<path d="M9 1.99988C4.8675 1.99988 1.5 5.36738 1.5 9.49988C1.5 13.6324 4.8675 16.9999 9 16.9999C13.1325 16.9999 16.5 13.6324 16.5 9.49988C16.5 5.36738 13.1325 1.99988 9 1.99988ZM12.585 7.77488L8.3325 12.0274C8.2275 12.1324 8.085 12.1924 7.935 12.1924C7.785 12.1924 7.6425 12.1324 7.5375 12.0274L5.415 9.90488C5.1975 9.68738 5.1975 9.32738 5.415 9.10988C5.6325 8.89238 5.9925 8.89238 6.21 9.10988L7.935 10.8349L11.79 6.97988C12.0075 6.76238 12.3675 6.76238 12.585 6.97988C12.8025 7.19738 12.8025 7.54988 12.585 7.77488Z" fill="#9B4EFF"/>
</svg>
