<svg width="20" height="20" viewBox="0 0 20 20" fill="none" xmlns="http://www.w3.org/2000/svg">
<path d="M17.5665 7.15002V12.85C17.5665 13.7833 17.0665 14.65 16.2581 15.125L11.3081 17.9834C10.4998 18.45 9.4998 18.45 8.68314 17.9834L3.73314 15.125C2.9248 14.6584 2.4248 13.7917 2.4248 12.85V7.15002C2.4248 6.21668 2.9248 5.34998 3.73314 4.87498L8.68314 2.01666C9.49147 1.54999 10.4915 1.54999 11.3081 2.01666L16.2581 4.87498C17.0665 5.34998 17.5665 6.20835 17.5665 7.15002Z" stroke="white" stroke-width="1.5" stroke-linecap="round" stroke-linejoin="round"/>
<path d="M10.0003 9.16667C11.0726 9.16667 11.9419 8.29734 11.9419 7.22499C11.9419 6.15263 11.0726 5.28336 10.0003 5.28336C8.92791 5.28336 8.05859 6.15263 8.05859 7.22499C8.05859 8.29734 8.92791 9.16667 10.0003 9.16667Z" stroke="white" stroke-width="1.5" stroke-linecap="round" stroke-linejoin="round"/>
<path d="M13.3337 13.8838C13.3337 12.3838 11.842 11.1671 10.0003 11.1671C8.15866 11.1671 6.66699 12.3838 6.66699 13.8838" stroke="white" stroke-width="1.5" stroke-linecap="round" stroke-linejoin="round"/>
</svg>
